<svg xmlns="http://www.w3.org/2000/svg" version="1.1" xmlns:xlink="http://www.w3.org/1999/xlink" xmlns:svgjs="http://svgjs.dev/svgjs" width="1440" height="560" preserveAspectRatio="none" viewBox="0 0 1440 560"><g mask="url(&quot;#SvgjsMask1000&quot;)" fill="none"><rect width="1440" height="560" x="0" y="0" fill="#0e2a47"></rect><path d="M207.41 63.2L272.37 100.7L272.37 175.7L207.41 213.2L142.46 175.7L142.46 100.7zM142.46 400.7L207.41 438.2L207.41 513.2L142.46 550.7L77.5 513.2L77.5 438.2zM467.23 288.2L532.18 325.7L532.18 400.7L467.23 438.2L402.27 400.7L402.27 325.7zM532.18 -49.3L597.13 -11.8L597.13 63.2L532.18 100.7L467.23 63.2L467.23 -11.8zM662.09 175.7L727.04 213.2L727.04 288.2L662.09 325.7L597.13 288.2L597.13 213.2zM856.95 288.2L921.9 325.7L921.9 400.7L856.95 438.2L791.99 400.7L791.99 325.7zM791.99 400.7L856.95 438.2L856.95 513.2L791.99 550.7L727.04 513.2L727.04 438.2zM1116.76 63.2L1181.72 100.7L1181.72 175.7L1116.76 213.2L1051.81 175.7L1051.81 100.7zM1116.76 288.2L1181.72 325.7L1181.72 400.7L1116.76 438.2L1051.81 400.7L1051.81 325.7zM1051.81 400.7L1116.76 438.2L1116.76 513.2L1051.81 550.7L986.86 513.2L986.86 438.2zM1181.72 -49.3L1246.67 -11.8L1246.67 63.2L1181.72 100.7L1116.76 63.2L1116.76 -11.8zM1181.72 400.7L1246.67 438.2L1246.67 513.2L1181.72 550.7L1116.76 513.2L1116.76 438.2z" stroke="#03305d" stroke-width="2"></path><path d="M199.91 63.2 a7.5 7.5 0 1 0 15 0 a7.5 7.5 0 1 0 -15 0zM264.87 100.7 a7.5 7.5 0 1 0 15 0 a7.5 7.5 0 1 0 -15 0zM264.87 175.7 a7.5 7.5 0 1 0 15 0 a7.5 7.5 0 1 0 -15 0zM199.91 213.2 a7.5 7.5 0 1 0 15 0 a7.5 7.5 0 1 0 -15 0zM134.96 175.7 a7.5 7.5 0 1 0 15 0 a7.5 7.5 0 1 0 -15 0zM134.96 100.7 a7.5 7.5 0 1 0 15 0 a7.5 7.5 0 1 0 -15 0zM134.96 400.7 a7.5 7.5 0 1 0 15 0 a7.5 7.5 0 1 0 -15 0zM199.91 438.2 a7.5 7.5 0 1 0 15 0 a7.5 7.5 0 1 0 -15 0zM199.91 513.2 a7.5 7.5 0 1 0 15 0 a7.5 7.5 0 1 0 -15 0zM134.96 550.7 a7.5 7.5 0 1 0 15 0 a7.5 7.5 0 1 0 -15 0zM70 513.2 a7.5 7.5 0 1 0 15 0 a7.5 7.5 0 1 0 -15 0zM70 438.2 a7.5 7.5 0 1 0 15 0 a7.5 7.5 0 1 0 -15 0zM459.73 288.2 a7.5 7.5 0 1 0 15 0 a7.5 7.5 0 1 0 -15 0zM524.68 325.7 a7.5 7.5 0 1 0 15 0 a7.5 7.5 0 1 0 -15 0zM524.68 400.7 a7.5 7.5 0 1 0 15 0 a7.5 7.5 0 1 0 -15 0zM459.73 438.2 a7.5 7.5 0 1 0 15 0 a7.5 7.5 0 1 0 -15 0zM394.77 400.7 a7.5 7.5 0 1 0 15 0 a7.5 7.5 0 1 0 -15 0zM394.77 325.7 a7.5 7.5 0 1 0 15 0 a7.5 7.5 0 1 0 -15 0zM524.68 -49.3 a7.5 7.5 0 1 0 15 0 a7.5 7.5 0 1 0 -15 0zM589.63 -11.8 a7.5 7.5 0 1 0 15 0 a7.5 7.5 0 1 0 -15 0zM589.63 63.2 a7.5 7.5 0 1 0 15 0 a7.5 7.5 0 1 0 -15 0zM524.68 100.7 a7.5 7.5 0 1 0 15 0 a7.5 7.5 0 1 0 -15 0zM459.73 63.2 a7.5 7.5 0 1 0 15 0 a7.5 7.5 0 1 0 -15 0zM459.73 -11.8 a7.5 7.5 0 1 0 15 0 a7.5 7.5 0 1 0 -15 0zM654.59 175.7 a7.5 7.5 0 1 0 15 0 a7.5 7.5 0 1 0 -15 0zM719.54 213.2 a7.5 7.5 0 1 0 15 0 a7.5 7.5 0 1 0 -15 0zM719.54 288.2 a7.5 7.5 0 1 0 15 0 a7.5 7.5 0 1 0 -15 0zM654.59 325.7 a7.5 7.5 0 1 0 15 0 a7.5 7.5 0 1 0 -15 0zM589.63 288.2 a7.5 7.5 0 1 0 15 0 a7.5 7.5 0 1 0 -15 0zM589.63 213.2 a7.5 7.5 0 1 0 15 0 a7.5 7.5 0 1 0 -15 0zM849.45 288.2 a7.5 7.5 0 1 0 15 0 a7.5 7.5 0 1 0 -15 0zM914.4 325.7 a7.5 7.5 0 1 0 15 0 a7.5 7.5 0 1 0 -15 0zM914.4 400.7 a7.5 7.5 0 1 0 15 0 a7.5 7.5 0 1 0 -15 0zM849.45 438.2 a7.5 7.5 0 1 0 15 0 a7.5 7.5 0 1 0 -15 0zM784.49 400.7 a7.5 7.5 0 1 0 15 0 a7.5 7.5 0 1 0 -15 0zM784.49 325.7 a7.5 7.5 0 1 0 15 0 a7.5 7.5 0 1 0 -15 0zM849.45 513.2 a7.5 7.5 0 1 0 15 0 a7.5 7.5 0 1 0 -15 0zM784.49 550.7 a7.5 7.5 0 1 0 15 0 a7.5 7.5 0 1 0 -15 0zM719.54 513.2 a7.5 7.5 0 1 0 15 0 a7.5 7.5 0 1 0 -15 0zM719.54 438.2 a7.5 7.5 0 1 0 15 0 a7.5 7.5 0 1 0 -15 0zM1109.26 63.2 a7.5 7.5 0 1 0 15 0 a7.5 7.5 0 1 0 -15 0zM1174.22 100.7 a7.5 7.5 0 1 0 15 0 a7.5 7.5 0 1 0 -15 0zM1174.22 175.7 a7.5 7.5 0 1 0 15 0 a7.5 7.5 0 1 0 -15 0zM1109.26 213.2 a7.5 7.5 0 1 0 15 0 a7.5 7.5 0 1 0 -15 0zM1044.31 175.7 a7.5 7.5 0 1 0 15 0 a7.5 7.5 0 1 0 -15 0zM1044.31 100.7 a7.5 7.5 0 1 0 15 0 a7.5 7.5 0 1 0 -15 0zM1109.26 288.2 a7.5 7.5 0 1 0 15 0 a7.5 7.5 0 1 0 -15 0zM1174.22 325.7 a7.5 7.5 0 1 0 15 0 a7.5 7.5 0 1 0 -15 0zM1174.22 400.7 a7.5 7.5 0 1 0 15 0 a7.5 7.5 0 1 0 -15 0zM1109.26 438.2 a7.5 7.5 0 1 0 15 0 a7.5 7.5 0 1 0 -15 0zM1044.31 400.7 a7.5 7.5 0 1 0 15 0 a7.5 7.5 0 1 0 -15 0zM1044.31 325.7 a7.5 7.5 0 1 0 15 0 a7.5 7.5 0 1 0 -15 0zM1109.26 513.2 a7.5 7.5 0 1 0 15 0 a7.5 7.5 0 1 0 -15 0zM1044.31 550.7 a7.5 7.5 0 1 0 15 0 a7.5 7.5 0 1 0 -15 0zM979.36 513.2 a7.5 7.5 0 1 0 15 0 a7.5 7.5 0 1 0 -15 0zM979.36 438.2 a7.5 7.5 0 1 0 15 0 a7.5 7.5 0 1 0 -15 0zM1174.22 -49.3 a7.5 7.5 0 1 0 15 0 a7.5 7.5 0 1 0 -15 0zM1239.17 -11.8 a7.5 7.5 0 1 0 15 0 a7.5 7.5 0 1 0 -15 0zM1239.17 63.2 a7.5 7.5 0 1 0 15 0 a7.5 7.5 0 1 0 -15 0zM1109.26 -11.8 a7.5 7.5 0 1 0 15 0 a7.5 7.5 0 1 0 -15 0zM1239.17 438.2 a7.5 7.5 0 1 0 15 0 a7.5 7.5 0 1 0 -15 0zM1239.17 513.2 a7.5 7.5 0 1 0 15 0 a7.5 7.5 0 1 0 -15 0zM1174.22 550.7 a7.5 7.5 0 1 0 15 0 a7.5 7.5 0 1 0 -15 0z" fill="#03305d"></path><path d="M36.39 -45.25L79.69 -20.25L79.69 29.75L36.39 54.75L-6.91 29.75L-6.91 -20.25zM79.69 29.75L123 54.75L123 104.75L79.69 129.75L36.39 104.75L36.39 54.75zM79.69 179.75L123 204.75L123 254.75L79.69 279.75L36.39 254.75L36.39 204.75zM79.69 329.75L123 354.75L123 404.75L79.69 429.75L36.39 404.75L36.39 354.75zM36.39 404.75L79.69 429.75L79.69 479.75L36.39 504.75L-6.91 479.75L-6.91 429.75zM166.3 329.75L209.6 354.75L209.6 404.75L166.3 429.75L123 404.75L123 354.75zM252.9 479.75L296.2 504.75L296.2 554.75L252.9 579.75L209.6 554.75L209.6 504.75zM296.2 -45.25L339.51 -20.25L339.51 29.75L296.2 54.75L252.9 29.75L252.9 -20.25zM296.2 104.75L339.51 129.75L339.51 179.75L296.2 204.75L252.9 179.75L252.9 129.75zM339.51 329.75L382.81 354.75L382.81 404.75L339.51 429.75L296.2 404.75L296.2 354.75zM382.81 -45.25L426.11 -20.25L426.11 29.75L382.81 54.75L339.51 29.75L339.51 -20.25zM426.11 29.75L469.42 54.75L469.42 104.75L426.11 129.75L382.81 104.75L382.81 54.75zM382.81 404.75L426.11 429.75L426.11 479.75L382.81 504.75L339.51 479.75L339.51 429.75zM469.42 254.75L512.72 279.75L512.72 329.75L469.42 354.75L426.11 329.75L426.11 279.75zM469.42 404.75L512.72 429.75L512.72 479.75L469.42 504.75L426.11 479.75L426.11 429.75zM512.72 479.75L556.02 504.75L556.02 554.75L512.72 579.75L469.42 554.75L469.42 504.75zM556.02 -45.25L599.32 -20.25L599.32 29.75L556.02 54.75L512.72 29.75L512.72 -20.25zM599.32 29.75L642.63 54.75L642.63 104.75L599.32 129.75L556.02 104.75L556.02 54.75zM642.63 -45.25L685.93 -20.25L685.93 29.75L642.63 54.75L599.32 29.75L599.32 -20.25zM685.93 179.75L729.23 204.75L729.23 254.75L685.93 279.75L642.63 254.75L642.63 204.75zM685.93 329.75L729.23 354.75L729.23 404.75L685.93 429.75L642.63 404.75L642.63 354.75zM772.53 179.75L815.84 204.75L815.84 254.75L772.53 279.75L729.23 254.75L729.23 204.75zM772.53 329.75L815.84 354.75L815.84 404.75L772.53 429.75L729.23 404.75L729.23 354.75zM729.23 404.75L772.53 429.75L772.53 479.75L729.23 504.75L685.93 479.75L685.93 429.75zM815.84 254.75L859.14 279.75L859.14 329.75L815.84 354.75L772.53 329.75L772.53 279.75zM815.84 404.75L859.14 429.75L859.14 479.75L815.84 504.75L772.53 479.75L772.53 429.75zM989.05 -45.25L1032.35 -20.25L1032.35 29.75L989.05 54.75L945.74 29.75L945.74 -20.25zM1032.35 179.75L1075.65 204.75L1075.65 254.75L1032.35 279.75L989.05 254.75L989.05 204.75zM989.05 254.75L1032.35 279.75L1032.35 329.75L989.05 354.75L945.74 329.75L945.74 279.75zM1032.35 329.75L1075.65 354.75L1075.65 404.75L1032.35 429.75L989.05 404.75L989.05 354.75zM1032.35 479.75L1075.65 504.75L1075.65 554.75L1032.35 579.75L989.05 554.75L989.05 504.75zM1118.95 29.75L1162.26 54.75L1162.26 104.75L1118.95 129.75L1075.65 104.75L1075.65 54.75zM1075.65 104.75L1118.95 129.75L1118.95 179.75L1075.65 204.75L1032.35 179.75L1032.35 129.75zM1118.95 329.75L1162.26 354.75L1162.26 404.75L1118.95 429.75L1075.65 404.75L1075.65 354.75zM1118.95 479.75L1162.26 504.75L1162.26 554.75L1118.95 579.75L1075.65 554.75L1075.65 504.75zM1162.26 104.75L1205.56 129.75L1205.56 179.75L1162.26 204.75L1118.95 179.75L1118.95 129.75zM1162.26 254.75L1205.56 279.75L1205.56 329.75L1162.26 354.75L1118.95 329.75L1118.95 279.75zM1248.86 254.75L1292.16 279.75L1292.16 329.75L1248.86 354.75L1205.56 329.75L1205.56 279.75zM1292.16 329.75L1335.47 354.75L1335.47 404.75L1292.16 429.75L1248.86 404.75L1248.86 354.75zM1335.47 -45.25L1378.77 -20.25L1378.77 29.75L1335.47 54.75L1292.16 29.75L1292.16 -20.25zM1422.07 -45.25L1465.37 -20.25L1465.37 29.75L1422.07 54.75L1378.77 29.75L1378.77 -20.25zM1422.07 104.75L1465.37 129.75L1465.37 179.75L1422.07 204.75L1378.77 179.75L1378.77 129.75zM1465.37 479.75L1508.68 504.75L1508.68 554.75L1465.37 579.75L1422.07 554.75L1422.07 504.75z" stroke="rgba(6, 80, 156, 0.93)" stroke-width="2"></path></g><defs><mask id="SvgjsMask1000"><rect width="1440" height="560" fill="#ffffff"></rect></mask></defs></svg>